# xmcd
#
# Track frame offsets:
#	150
#	20960
#	36180
#	49447
#	66700
#	85837
#	102827
#	117640
#	137682
#	150325
#	166265
#	185240
#	201660
#	222107
#	242710
#	256897
#	271592
#	299732
#	314147
#	330200
#
# Disc length: 4664 seconds
#
# Revision: 1
# Processed by: cddbd v1.4PL0 Copyright (c) Steve Scherf et al.
# Submitted via: audiograbber 1.80
#
DISCID=3d123614
DTITLE=Various Artist - Summer Latin Rhythms
DYEAR=1900
DGENRE=
TTITLE0=1,2,3 maria
TTITLE1=Lambada
TTITLE2=Hot, hot, hot
TTITLE3=Bamboleo
TTITLE4=Conga
TTITLE5=Cuba limbo
TTITLE6=Una amour pour moi
TTITLE7=Senza una donna
TTITLE8=Samba de janeiro
TTITLE9=Ecuador
TTITLE10=Macarena
TTITLE11=Coco jamboo
TTITLE12=Mi tierra
TTITLE13=Angel
TTITLE14=Tombola
TTITLE15=I go to rio
TTITLE16=Keep coming back
TTITLE17=Compresnion
TTITLE18=No quiro samber
TTITLE19=Ritmo de la noche
EXTD=
EXTT0=
EXTT1=
EXTT2=
EXTT3=
EXTT4=
EXTT5=
EXTT6=
EXTT7=
EXTT8=
EXTT9=
EXTT10=
EXTT11=
EXTT12=
EXTT13=
EXTT14=
EXTT15=
EXTT16=
EXTT17=
EXTT18=
EXTT19=
PLAYORDER=
